<?xml version="1.0" encoding="UTF-8" standalone="no"?>
<!DOCTYPE svg PUBLIC "-//W3C//DTD SVG 1.1//EN"
 "http://www.w3.org/Graphics/SVG/1.1/DTD/svg11.dtd">
<!-- Generated by graphviz version 14.1.0 (20251206.1807)
 -->
<!-- Title: RPC_NCN_Architecture Pages: 1 -->
<svg width="2248pt" height="1097pt"
 viewBox="0.00 0.00 2248.00 1097.00" xmlns="http://www.w3.org/2000/svg" xmlns:xlink="http://www.w3.org/1999/xlink">
<g id="graph0" class="graph" transform="scale(1 1) rotate(0) translate(4 1093.12)">
<title>RPC_NCN_Architecture</title>
<polygon fill="white" stroke="none" points="-4,4 -4,-1093.12 2244.38,-1093.12 2244.38,4 -4,4"/>
<text xml:space="preserve" text-anchor="middle" x="1120.19" y="-1069.92" font-family="Arial Bold" font-size="16.00">RPC&#45;NCN Architecture</text>
<text xml:space="preserve" text-anchor="middle" x="1120.19" y="-1051.17" font-family="Arial Bold" font-size="16.00">Verified RPC Infrastructure with Latency Guarantees</text>
<g id="clust1" class="cluster">
<title>cluster_client</title>
<polygon fill="lightblue" stroke="lightblue" points="1882.38,-850.12 1882.38,-1035.62 2018.38,-1035.62 2018.38,-850.12 1882.38,-850.12"/>
<text xml:space="preserve" text-anchor="middle" x="1950.38" y="-1016.42" font-family="Arial Bold" font-size="16.00">Client Layer</text>
</g>
<g id="clust2" class="cluster">
<title>cluster_gateway</title>
<polygon fill="lightgreen" stroke="lightgreen" points="1808.38,-54.88 1808.38,-808.12 1986.38,-808.12 1986.38,-54.88 1808.38,-54.88"/>
<text xml:space="preserve" text-anchor="middle" x="1897.38" y="-788.92" font-family="Arial Bold" font-size="16.00">Gateway Layer</text>
</g>
<g id="clust3" class="cluster">
<title>cluster_operators</title>
<polygon fill="lightyellow" stroke="lightyellow" points="620.38,-205.25 620.38,-561.12 1042.38,-561.12 1042.38,-205.25 620.38,-205.25"/>
<text xml:space="preserve" text-anchor="middle" x="831.38" y="-541.92" font-family="Arial Bold" font-size="16.00">Operator Layer</text>
</g>
<g id="clust4" class="cluster">
<title>cluster_latency</title>
<polygon fill="none" stroke="orange" stroke-dasharray="5,2" points="294.38,-31.25 294.38,-357.62 612.38,-357.62 612.38,-31.25 294.38,-31.25"/>
<text xml:space="preserve" text-anchor="middle" x="453.38" y="-338.43" font-family="Arial Bold" font-size="16.00">Latency Attestation Network</text>
</g>
<g id="clust5" class="cluster">
<title>cluster_solana</title>
<polygon fill="lightpink" stroke="lightpink" points="1050.38,-220.88 1050.38,-410.12 1800.38,-410.12 1800.38,-220.88 1050.38,-220.88"/>
<text xml:space="preserve" text-anchor="middle" x="1425.38" y="-390.93" font-family="Arial Bold" font-size="16.00">Solana Settlement Layer</text>
<text xml:space="preserve" text-anchor="middle" x="1425.38" y="-372.18" font-family="Arial Bold" font-size="16.00">(Jito Restaking)</text>
</g>
<g id="clust6" class="cluster">
<title>cluster_programs</title>
<polygon fill="mistyrose" stroke="mistyrose" points="1058.38,-228.88 1058.38,-337.88 1692.38,-337.88 1692.38,-228.88 1058.38,-228.88"/>
<text xml:space="preserve" text-anchor="middle" x="1375.38" y="-318.68" font-family="Arial Bold" font-size="16.00">On&#45;Chain Programs (Anchor)</text>
</g>
<!-- Client -->
<g id="node1" class="node">
<title>Client</title>
<path fill="lightcyan" stroke="black" d="M1998.5,-897.62C1998.5,-897.62 1902.25,-897.62 1902.25,-897.62 1896.25,-897.62 1890.25,-891.62 1890.25,-885.62 1890.25,-885.62 1890.25,-870.12 1890.25,-870.12 1890.25,-864.12 1896.25,-858.12 1902.25,-858.12 1902.25,-858.12 1998.5,-858.12 1998.5,-858.12 2004.5,-858.12 2010.5,-864.12 2010.5,-870.12 2010.5,-870.12 2010.5,-885.62 2010.5,-885.62 2010.5,-891.62 2004.5,-897.62 1998.5,-897.62"/>
<text xml:space="preserve" text-anchor="middle" x="1950.38" y="-880.33" font-family="Arial" font-size="14.00">Client Application</text>
<text xml:space="preserve" text-anchor="middle" x="1950.38" y="-864.58" font-family="Arial" font-size="14.00">(TypeScript SDK)</text>
</g>
<!-- Gateway -->
<g id="node3" class="node">
<title>Gateway</title>
<polygon fill="none" stroke="black" points="1954.5,-746.62 1816.25,-746.62 1816.25,-742.62 1812.25,-742.62 1812.25,-738.62 1816.25,-738.62 1816.25,-715.12 1812.25,-715.12 1812.25,-711.12 1816.25,-711.12 1816.25,-707.12 1954.5,-707.12 1954.5,-746.62"/>
<polyline fill="none" stroke="black" points="1816.25,-742.62 1820.25,-742.62 1820.25,-738.62 1816.25,-738.62"/>
<polyline fill="none" stroke="black" points="1816.25,-715.12 1820.25,-715.12 1820.25,-711.12 1816.25,-711.12"/>
<text xml:space="preserve" text-anchor="middle" x="1885.38" y="-729.33" font-family="Arial" font-size="14.00">Gateway</text>
<text xml:space="preserve" text-anchor="middle" x="1885.38" y="-713.58" font-family="Arial" font-size="14.00">(TypeScript/Node.js)</text>
</g>
<!-- Client&#45;&gt;Gateway -->
<g id="edge5" class="edge">
<title>Client&#45;&gt;Gateway</title>
<path fill="none" stroke="blue" stroke-width="2" d="M1932.38,-857.65C1928.01,-852.27 1923.65,-846.22 1920.38,-840.12 1906.63,-814.58 1897.36,-782.8 1891.83,-759.59"/>
<polygon fill="blue" stroke="blue" stroke-width="2" points="1895.28,-758.96 1889.67,-749.97 1888.45,-760.5 1895.28,-758.96"/>
<text xml:space="preserve" text-anchor="middle" x="1944.38" y="-830.62" font-family="Arial" font-size="10.00">1. Request</text>
<text xml:space="preserve" text-anchor="middle" x="1944.38" y="-818.62" font-family="Arial" font-size="10.00">+ API Key</text>
</g>
<!-- ApiKey -->
<g id="node2" class="node">
<title>ApiKey</title>
<polygon fill="none" stroke="black" points="1994,-974.12 1900.75,-974.12 1900.75,-934.62 2000,-934.62 2000,-968.12 1994,-974.12"/>
<polyline fill="none" stroke="black" points="1994,-974.12 1994,-968.12"/>
<polyline fill="none" stroke="black" points="2000,-968.12 1994,-968.12"/>
<text xml:space="preserve" text-anchor="middle" x="1950.38" y="-956.83" font-family="Arial" font-size="14.00">API Key</text>
<text xml:space="preserve" text-anchor="middle" x="1950.38" y="-941.08" font-family="Arial" font-size="14.00">(Subscription)</text>
</g>
<!-- ApiKey&#45;&gt;Client -->
<!-- Router -->
<g id="node4" class="node">
<title>Router</title>
<path fill="none" stroke="black" d="M1914.62,-647.12C1914.62,-647.12 1828.12,-647.12 1828.12,-647.12 1822.12,-647.12 1816.12,-641.12 1816.12,-635.12 1816.12,-635.12 1816.12,-623.12 1816.12,-623.12 1816.12,-617.12 1822.12,-611.12 1828.12,-611.12 1828.12,-611.12 1914.62,-611.12 1914.62,-611.12 1920.62,-611.12 1926.62,-617.12 1926.62,-623.12 1926.62,-623.12 1926.62,-635.12 1926.62,-635.12 1926.62,-641.12 1920.62,-647.12 1914.62,-647.12"/>
<text xml:space="preserve" text-anchor="middle" x="1871.38" y="-623.7" font-family="Arial" font-size="14.00">Request Router</text>
</g>
<!-- Gateway&#45;&gt;Router -->
<g id="edge1" class="edge">
<title>Gateway&#45;&gt;Router</title>
<path fill="none" stroke="black" d="M1876.61,-706.8C1874.46,-701.22 1872.46,-695.03 1871.38,-689.12 1869.59,-679.42 1869.15,-668.67 1869.29,-659.03"/>
<polygon fill="black" stroke="black" points="1872.79,-659.21 1869.67,-649.08 1865.79,-658.94 1872.79,-659.21"/>
</g>
<!-- Gateway&#45;&gt;Router -->
<g id="edge6" class="edge">
<title>Gateway&#45;&gt;Router</title>
<path fill="none" stroke="black" stroke-dasharray="5,2" d="M1882.61,-706.96C1880.59,-693.15 1877.82,-674.19 1875.53,-658.56"/>
<polygon fill="black" stroke="black" points="1879.03,-658.28 1874.12,-648.89 1872.1,-659.29 1879.03,-658.28"/>
<text xml:space="preserve" text-anchor="middle" x="1906.63" y="-679.62" font-family="Arial" font-size="10.00">2. Lookup</text>
<text xml:space="preserve" text-anchor="middle" x="1906.63" y="-667.62" font-family="Arial" font-size="10.00">Subscription</text>
</g>
<!-- Aggregator -->
<g id="node5" class="node">
<title>Aggregator</title>
<path fill="none" stroke="black" d="M1950.62,-497.88C1950.62,-497.88 1828.12,-497.88 1828.12,-497.88 1822.12,-497.88 1816.12,-491.88 1816.12,-485.88 1816.12,-485.88 1816.12,-473.88 1816.12,-473.88 1816.12,-467.88 1822.12,-461.88 1828.12,-461.88 1828.12,-461.88 1950.62,-461.88 1950.62,-461.88 1956.62,-461.88 1962.62,-467.88 1962.62,-473.88 1962.62,-473.88 1962.62,-485.88 1962.62,-485.88 1962.62,-491.88 1956.62,-497.88 1950.62,-497.88"/>
<text xml:space="preserve" text-anchor="middle" x="1889.38" y="-474.45" font-family="Arial" font-size="14.00">Response Aggregator</text>
</g>
<!-- Router&#45;&gt;Aggregator -->
<g id="edge2" class="edge">
<title>Router&#45;&gt;Aggregator</title>
<path fill="none" stroke="black" d="M1873.51,-610.66C1876.56,-585.75 1882.18,-539.73 1885.85,-509.72"/>
<polygon fill="black" stroke="black" points="1889.32,-510.18 1887.06,-499.82 1882.37,-509.33 1889.32,-510.18"/>
</g>
<!-- Operator1 -->
<g id="node8" class="node">
<title>Operator1</title>
<polygon fill="none" stroke="black" points="752,-499.62 632.75,-499.62 628.75,-495.62 628.75,-460.12 748,-460.12 752,-464.12 752,-499.62"/>
<polyline fill="none" stroke="black" points="748,-495.62 628.75,-495.62"/>
<polyline fill="none" stroke="black" points="748,-495.62 748,-460.12"/>
<polyline fill="none" stroke="black" points="748,-495.62 752,-499.62"/>
<text xml:space="preserve" text-anchor="middle" x="690.38" y="-482.32" font-family="Arial" font-size="14.00">Operator 1</text>
<text xml:space="preserve" text-anchor="middle" x="690.38" y="-466.57" font-family="Arial" font-size="14.00">(Rust RPC Proxy)</text>
</g>
<!-- Router&#45;&gt;Operator1 -->
<g id="edge7" class="edge">
<title>Router&#45;&gt;Operator1</title>
<path fill="none" stroke="blue" stroke-width="2" d="M1815.76,-628.13C1632.57,-627.84 1049.18,-624.42 863.88,-593.12 816.4,-585.11 800.74,-587.38 760.38,-561.12 740.16,-547.98 722.37,-527.4 709.79,-510.37"/>
<polygon fill="blue" stroke="blue" stroke-width="2" points="712.69,-508.41 704.05,-502.27 706.98,-512.46 712.69,-508.41"/>
<text xml:space="preserve" text-anchor="middle" x="890.12" y="-583.62" font-family="Arial" font-size="10.00">3. Fanout to</text>
<text xml:space="preserve" text-anchor="middle" x="890.12" y="-571.62" font-family="Arial" font-size="10.00">N operators</text>
</g>
<!-- Operator2 -->
<g id="node9" class="node">
<title>Operator2</title>
<polygon fill="none" stroke="black" points="1034,-499.62 914.75,-499.62 910.75,-495.62 910.75,-460.12 1030,-460.12 1034,-464.12 1034,-499.62"/>
<polyline fill="none" stroke="black" points="1030,-495.62 910.75,-495.62"/>
<polyline fill="none" stroke="black" points="1030,-495.62 1030,-460.12"/>
<polyline fill="none" stroke="black" points="1030,-495.62 1034,-499.62"/>
<text xml:space="preserve" text-anchor="middle" x="972.38" y="-482.32" font-family="Arial" font-size="14.00">Operator 2</text>
<text xml:space="preserve" text-anchor="middle" x="972.38" y="-466.57" font-family="Arial" font-size="14.00">(Rust RPC Proxy)</text>
</g>
<!-- Router&#45;&gt;Operator2 -->
<g id="edge8" class="edge">
<title>Router&#45;&gt;Operator2</title>
<path fill="none" stroke="blue" d="M1815.99,-627.53C1682.44,-625.69 1345.59,-618.61 1236.12,-593.12 1155.18,-574.28 1067.61,-532.26 1016.5,-505.31"/>
<polygon fill="blue" stroke="blue" points="1018.28,-502.29 1007.8,-500.68 1014.99,-508.47 1018.28,-502.29"/>
<text xml:space="preserve" text-anchor="middle" x="1256.75" y="-577.62" font-family="Arial" font-size="10.00">3. Fanout</text>
</g>
<!-- Operator3 -->
<g id="node10" class="node">
<title>Operator3</title>
<polygon fill="none" stroke="black" points="893,-499.62 773.75,-499.62 769.75,-495.62 769.75,-460.12 889,-460.12 893,-464.12 893,-499.62"/>
<polyline fill="none" stroke="black" points="889,-495.62 769.75,-495.62"/>
<polyline fill="none" stroke="black" points="889,-495.62 889,-460.12"/>
<polyline fill="none" stroke="black" points="889,-495.62 893,-499.62"/>
<text xml:space="preserve" text-anchor="middle" x="831.38" y="-482.32" font-family="Arial" font-size="14.00">Operator N</text>
<text xml:space="preserve" text-anchor="middle" x="831.38" y="-466.57" font-family="Arial" font-size="14.00">(Rust RPC Proxy)</text>
</g>
<!-- Router&#45;&gt;Operator3 -->
<g id="edge9" class="edge">
<title>Router&#45;&gt;Operator3</title>
<path fill="none" stroke="blue" d="M1815.81,-627.48C1690.62,-625.61 1377.08,-618.55 1116.12,-593.12 1020.08,-583.77 986.03,-607.45 901.38,-561.12 879.34,-549.07 860.98,-527.21 848.6,-509.35"/>
<polygon fill="blue" stroke="blue" points="851.63,-507.59 843.19,-501.18 845.8,-511.45 851.63,-507.59"/>
<text xml:space="preserve" text-anchor="middle" x="1136.75" y="-577.62" font-family="Arial" font-size="10.00">3. Fanout</text>
</g>
<!-- Registry -->
<g id="node15" class="node">
<title>Registry</title>
<polygon fill="none" stroke="black" points="1684.62,-276.38 1681.62,-280.38 1660.62,-280.38 1657.62,-276.38 1514.12,-276.38 1514.12,-236.88 1684.62,-236.88 1684.62,-276.38"/>
<text xml:space="preserve" text-anchor="middle" x="1599.38" y="-259.07" font-family="Arial" font-size="14.00">Registry</text>
<text xml:space="preserve" text-anchor="middle" x="1599.38" y="-243.32" font-family="Arial" font-size="14.00">(Operators/Subscriptions)</text>
</g>
<!-- Router&#45;&gt;Registry -->
<g id="edge17" class="edge">
<title>Router&#45;&gt;Registry</title>
<path fill="none" stroke="black" stroke-dasharray="1,5" d="M1815.92,-617.76C1780.45,-608.47 1735.83,-591.46 1706.88,-561.12 1668.01,-520.42 1623.78,-355.99 1606.67,-287.65"/>
<polygon fill="black" stroke="black" points="1610.14,-287.12 1604.34,-278.26 1603.35,-288.81 1610.14,-287.12"/>
<text xml:space="preserve" text-anchor="middle" x="1757.12" y="-476.38" font-family="Arial" font-size="10.00">Check subscription tier</text>
</g>
<!-- VerificationTiers -->
<g id="node19" class="node">
<title>VerificationTiers</title>
<polygon fill="none" stroke="black" points="280.75,-133.5 0,-133.5 0,-31.75 286.75,-31.75 286.75,-127.5 280.75,-133.5"/>
<polyline fill="none" stroke="black" points="280.75,-133.5 280.75,-127.5"/>
<polyline fill="none" stroke="black" points="286.75,-127.5 280.75,-127.5"/>
<text xml:space="preserve" text-anchor="middle" x="143.38" y="-116.2" font-family="Arial" font-size="14.00">Verification Tiers:</text>
<text xml:space="preserve" text-anchor="middle" x="143.38" y="-100.45" font-family="Arial" font-size="14.00">━━━━━━━━━━━━━━━━━━━</text>
<text xml:space="preserve" text-anchor="middle" x="143.38" y="-85.45" font-family="Arial" font-size="14.00">Basic: 1 op, 100ms, $0.0001/req</text>
<text xml:space="preserve" text-anchor="middle" x="143.38" y="-69.7" font-family="Arial" font-size="14.00">Standard: 3&#45;5 ops, 50ms, $0.0005/req</text>
<text xml:space="preserve" text-anchor="middle" x="143.38" y="-53.95" font-family="Arial" font-size="14.00">Premium: 5+ ops, 20ms, $0.001/req</text>
<text xml:space="preserve" text-anchor="middle" x="143.38" y="-38.2" font-family="Arial" font-size="14.00">Enterprise: 7+ ops, 10ms, $0.005/req</text>
</g>
<!-- Router&#45;&gt;VerificationTiers -->
<g id="edge29" class="edge">
<title>Router&#45;&gt;VerificationTiers</title>
<path fill="none" stroke="black" stroke-dasharray="1,5" d="M1815.85,-627.63C1622.01,-625.71 976.07,-617.58 770.38,-593.12 700.96,-584.87 682.75,-583.07 616.38,-561.12 464.77,-511 402.68,-523.64 290.38,-410.12 216.4,-335.35 176,-216.79 157.1,-144.99"/>
<polygon fill="black" stroke="black" points="160.5,-144.17 154.63,-135.35 153.72,-145.91 160.5,-144.17"/>
<text xml:space="preserve" text-anchor="middle" x="339.95" y="-426.62" font-family="Arial" font-size="10.00">Use tier</text>
</g>
<!-- Aggregator&#45;&gt;Client -->
<g id="edge16" class="edge">
<title>Aggregator&#45;&gt;Client</title>
<path fill="none" stroke="purple" stroke-width="2" d="M1895.78,-498.05C1904.97,-522.87 1922.21,-570.27 1935.38,-611.12 1949,-653.43 1956.08,-663.28 1963.38,-707.12 1971.33,-754.96 1967.26,-767.64 1968.38,-816.12 1968.62,-826.79 1970.78,-829.73 1968.38,-840.12 1967.94,-841.99 1967.41,-843.86 1966.79,-845.72"/>
<polygon fill="purple" stroke="purple" stroke-width="2" points="1963.59,-844.28 1962.98,-854.86 1970.06,-846.97 1963.59,-844.28"/>
<text xml:space="preserve" text-anchor="middle" x="2005.37" y="-679.62" font-family="Arial" font-size="10.00">7. Verified Response</text>
<text xml:space="preserve" text-anchor="middle" x="2005.37" y="-667.62" font-family="Arial" font-size="10.00">+ Proof</text>
</g>
<!-- VerificationEngine -->
<g id="node6" class="node">
<title>VerificationEngine</title>
<path fill="none" stroke="black" d="M1945.88,-276.38C1945.88,-276.38 1842.88,-276.38 1842.88,-276.38 1836.88,-276.38 1830.88,-270.38 1830.88,-264.38 1830.88,-264.38 1830.88,-248.88 1830.88,-248.88 1830.88,-242.88 1836.88,-236.88 1842.88,-236.88 1842.88,-236.88 1945.88,-236.88 1945.88,-236.88 1951.88,-236.88 1957.88,-242.88 1957.88,-248.88 1957.88,-248.88 1957.88,-264.38 1957.88,-264.38 1957.88,-270.38 1951.88,-276.38 1945.88,-276.38"/>
<text xml:space="preserve" text-anchor="middle" x="1894.38" y="-259.07" font-family="Arial" font-size="14.00">Signature Verifier</text>
<text xml:space="preserve" text-anchor="middle" x="1894.38" y="-243.32" font-family="Arial" font-size="14.00">(Threshold Check)</text>
</g>
<!-- Aggregator&#45;&gt;VerificationEngine -->
<g id="edge3" class="edge">
<title>Aggregator&#45;&gt;VerificationEngine</title>
<path fill="none" stroke="black" d="M1889.77,-461.51C1890.61,-424.03 1892.62,-335.11 1893.69,-288.05"/>
<polygon fill="black" stroke="black" points="1897.18,-288.37 1893.91,-278.29 1890.18,-288.21 1897.18,-288.37"/>
</g>
<!-- MetricsCollector -->
<g id="node7" class="node">
<title>MetricsCollector</title>
<path fill="none" stroke="black" d="M1966.5,-102.38C1966.5,-102.38 1828.25,-102.38 1828.25,-102.38 1822.25,-102.38 1816.25,-96.38 1816.25,-90.38 1816.25,-90.38 1816.25,-74.88 1816.25,-74.88 1816.25,-68.88 1822.25,-62.88 1828.25,-62.88 1828.25,-62.88 1966.5,-62.88 1966.5,-62.88 1972.5,-62.88 1978.5,-68.88 1978.5,-74.88 1978.5,-74.88 1978.5,-90.38 1978.5,-90.38 1978.5,-96.38 1972.5,-102.38 1966.5,-102.38"/>
<text xml:space="preserve" text-anchor="middle" x="1897.38" y="-85.08" font-family="Arial" font-size="14.00">Metrics Tracker</text>
<text xml:space="preserve" text-anchor="middle" x="1897.38" y="-69.33" font-family="Arial" font-size="14.00">(Latency, Success Rate)</text>
</g>
<!-- VerificationEngine&#45;&gt;MetricsCollector -->
<g id="edge4" class="edge">
<title>VerificationEngine&#45;&gt;MetricsCollector</title>
<path fill="none" stroke="black" d="M1894.71,-236.56C1895.23,-206.86 1896.23,-149.27 1896.85,-113.86"/>
<polygon fill="black" stroke="black" points="1900.34,-114.35 1897.01,-104.29 1893.34,-114.23 1900.34,-114.35"/>
</g>
<!-- RewardsDistribution -->
<g id="node18" class="node">
<title>RewardsDistribution</title>
<polygon fill="none" stroke="black" points="1338.62,-276.38 1335.62,-280.38 1314.62,-280.38 1311.62,-276.38 1198.12,-276.38 1198.12,-236.88 1338.62,-236.88 1338.62,-276.38"/>
<text xml:space="preserve" text-anchor="middle" x="1268.38" y="-259.07" font-family="Arial" font-size="14.00">Rewards Distribution</text>
<text xml:space="preserve" text-anchor="middle" x="1268.38" y="-243.32" font-family="Arial" font-size="14.00">(Fee Distribution)</text>
</g>
<!-- MetricsCollector&#45;&gt;RewardsDistribution -->
<g id="edge18" class="edge">
<title>MetricsCollector&#45;&gt;RewardsDistribution</title>
<path fill="none" stroke="black" stroke-dasharray="1,5" d="M1815.93,-92.6C1706.15,-106.7 1506.17,-139.49 1347.38,-205.25 1331.9,-211.66 1316.08,-221.07 1302.71,-230.02"/>
<polygon fill="black" stroke="black" points="1300.94,-226.99 1294.69,-235.55 1304.91,-232.76 1300.94,-226.99"/>
<text xml:space="preserve" text-anchor="middle" x="1436.61" y="-185.75" font-family="Arial" font-size="10.00">Report metrics</text>
</g>
<!-- Operator1&#45;&gt;Aggregator -->
<g id="edge13" class="edge">
<title>Operator1&#45;&gt;Aggregator</title>
<path fill="none" stroke="red" d="M700.91,-499.92C712.51,-519.62 733.18,-548.51 760.38,-561.12 860.46,-607.57 1647.19,-591.08 1753.38,-561.12 1792.51,-550.08 1831.8,-524.7 1858.02,-505.22"/>
<polygon fill="red" stroke="red" points="1860.01,-508.1 1865.85,-499.26 1855.78,-502.52 1860.01,-508.1"/>
<text xml:space="preserve" text-anchor="middle" x="1303.38" y="-583.62" font-family="Arial" font-size="10.00">5. Signed</text>
<text xml:space="preserve" text-anchor="middle" x="1303.38" y="-571.62" font-family="Arial" font-size="10.00">Response</text>
</g>
<!-- OperatorFunctions -->
<g id="node11" class="node">
<title>OperatorFunctions</title>
<polygon fill="none" stroke="black" points="809.88,-300 628.88,-300 628.88,-213.25 815.88,-213.25 815.88,-294 809.88,-300"/>
<polyline fill="none" stroke="black" points="809.88,-300 809.88,-294"/>
<polyline fill="none" stroke="black" points="815.88,-294 809.88,-294"/>
<text xml:space="preserve" text-anchor="middle" x="722.38" y="-282.7" font-family="Arial" font-size="14.00">Functions:</text>
<text xml:space="preserve" text-anchor="middle" x="722.38" y="-266.95" font-family="Arial" font-size="14.00">• Serve RPC requests</text>
<text xml:space="preserve" text-anchor="middle" x="722.38" y="-251.2" font-family="Arial" font-size="14.00">• Sign responses (ED25519)</text>
<text xml:space="preserve" text-anchor="middle" x="722.38" y="-235.45" font-family="Arial" font-size="14.00">• Measure peer latency</text>
<text xml:space="preserve" text-anchor="middle" x="722.38" y="-219.7" font-family="Arial" font-size="14.00">• Stake collateral</text>
</g>
<!-- Operator1&#45;&gt;OperatorFunctions -->
<!-- LatencyAttestation -->
<g id="node12" class="node">
<title>LatencyAttestation</title>
<path fill="none" stroke="black" d="M441.77,-293.09C441.77,-293.09 313.98,-259.66 313.98,-259.66 308.18,-258.14 308.18,-255.11 313.98,-253.59 313.98,-253.59 441.77,-220.16 441.77,-220.16 447.57,-218.64 459.18,-218.64 464.98,-220.16 464.98,-220.16 592.77,-253.59 592.77,-253.59 598.57,-255.11 598.57,-258.14 592.77,-259.66 592.77,-259.66 464.98,-293.09 464.98,-293.09 459.18,-294.61 447.57,-294.61 441.77,-293.09"/>
<text xml:space="preserve" text-anchor="middle" x="453.38" y="-259.07" font-family="Arial" font-size="14.00">Peer&#45;to&#45;Peer</text>
<text xml:space="preserve" text-anchor="middle" x="453.38" y="-243.32" font-family="Arial" font-size="14.00">Latency Measurement</text>
</g>
<!-- Operator1&#45;&gt;LatencyAttestation -->
<g id="edge24" class="edge">
<title>Operator1&#45;&gt;LatencyAttestation</title>
<path fill="none" stroke="black" stroke-dasharray="5,2" d="M628.45,-468.78C608.48,-463.32 587.18,-454.94 570.38,-442.12 523.21,-406.16 490,-345.29 471.31,-303.35"/>
<polygon fill="black" stroke="black" points="474.55,-302.03 467.36,-294.25 468.13,-304.82 474.55,-302.03"/>
</g>
<!-- SolanaRPC -->
<g id="node14" class="node">
<title>SolanaRPC</title>
<path fill="none" stroke="black" d="M1792.5,-278.84C1792.5,-281.57 1772.27,-283.78 1747.38,-283.78 1722.48,-283.78 1702.25,-281.57 1702.25,-278.84 1702.25,-278.84 1702.25,-234.41 1702.25,-234.41 1702.25,-231.68 1722.48,-229.47 1747.38,-229.47 1772.27,-229.47 1792.5,-231.68 1792.5,-234.41 1792.5,-234.41 1792.5,-278.84 1792.5,-278.84"/>
<path fill="none" stroke="black" d="M1792.5,-278.84C1792.5,-276.12 1772.27,-273.91 1747.38,-273.91 1722.48,-273.91 1702.25,-276.12 1702.25,-278.84"/>
<text xml:space="preserve" text-anchor="middle" x="1747.38" y="-259.07" font-family="Arial" font-size="14.00">Solana RPC</text>
<text xml:space="preserve" text-anchor="middle" x="1747.38" y="-243.32" font-family="Arial" font-size="14.00">Nodes</text>
</g>
<!-- Operator1&#45;&gt;SolanaRPC -->
<g id="edge10" class="edge">
<title>Operator1&#45;&gt;SolanaRPC</title>
<path fill="none" stroke="green" d="M752.43,-461.47C755.11,-460.96 757.76,-460.51 760.38,-460.12 996.58,-425 1060.78,-474.49 1297.38,-442.12 1342.12,-436 1351.35,-424.09 1396.12,-418.12 1412.67,-415.92 1682.96,-420.05 1696.38,-410.12 1732.11,-383.67 1743.12,-331.11 1746.34,-295.16"/>
<polygon fill="green" stroke="green" points="1749.8,-295.86 1747.02,-285.64 1742.82,-295.36 1749.8,-295.86"/>
<text xml:space="preserve" text-anchor="middle" x="1427.25" y="-426.62" font-family="Arial" font-size="10.00">4. Query RPC</text>
</g>
<!-- StakeCustody -->
<g id="node16" class="node">
<title>StakeCustody</title>
<polygon fill="none" stroke="black" points="1496.25,-276.38 1493.25,-280.38 1472.25,-280.38 1469.25,-276.38 1356.5,-276.38 1356.5,-236.88 1496.25,-236.88 1496.25,-276.38"/>
<text xml:space="preserve" text-anchor="middle" x="1426.38" y="-259.07" font-family="Arial" font-size="14.00">Stake Custody</text>
<text xml:space="preserve" text-anchor="middle" x="1426.38" y="-243.32" font-family="Arial" font-size="14.00">(Operator Collateral)</text>
</g>
<!-- Operator1&#45;&gt;StakeCustody -->
<g id="edge19" class="edge">
<title>Operator1&#45;&gt;StakeCustody</title>
<path fill="none" stroke="green" stroke-dasharray="1,5" d="M752.44,-461.49C755.11,-460.98 757.76,-460.52 760.38,-460.12 953.86,-430.63 1009.79,-486.66 1200.38,-442.12 1225.95,-436.15 1228.94,-424.67 1254.38,-418.12 1274.46,-412.95 1330.13,-421.65 1347.38,-410.12 1389.76,-381.79 1410.77,-323.27 1420.05,-287.53"/>
<polygon fill="green" stroke="green" points="1423.34,-288.81 1422.3,-278.26 1416.54,-287.15 1423.34,-288.81"/>
<text xml:space="preserve" text-anchor="middle" x="1273.88" y="-432.62" font-family="Arial" font-size="10.00">Stake</text>
<text xml:space="preserve" text-anchor="middle" x="1273.88" y="-420.62" font-family="Arial" font-size="10.00">collateral</text>
</g>
<!-- Operator2&#45;&gt;Aggregator -->
<g id="edge14" class="edge">
<title>Operator2&#45;&gt;Aggregator</title>
<path fill="none" stroke="red" d="M1028.6,-500.12C1158.87,-543.95 1490.29,-637.73 1753.38,-561.12 1792.42,-549.76 1831.72,-524.42 1857.97,-505.04"/>
<polygon fill="red" stroke="red" points="1859.94,-507.94 1865.81,-499.12 1855.72,-502.35 1859.94,-507.94"/>
<text xml:space="preserve" text-anchor="middle" x="1558.38" y="-583.62" font-family="Arial" font-size="10.00">5. Signed</text>
<text xml:space="preserve" text-anchor="middle" x="1558.38" y="-571.62" font-family="Arial" font-size="10.00">Response</text>
</g>
<!-- Operator2&#45;&gt;LatencyAttestation -->
<g id="edge25" class="edge">
<title>Operator2&#45;&gt;LatencyAttestation</title>
<path fill="none" stroke="black" stroke-dasharray="5,2" d="M910.61,-462.01C907.83,-461.35 905.08,-460.72 902.38,-460.12 839.37,-446.21 674.11,-438.92 616.38,-410.12 563.14,-383.58 515.15,-334.04 485.25,-298.63"/>
<polygon fill="black" stroke="black" points="488.09,-296.57 479.01,-291.12 482.7,-301.05 488.09,-296.57"/>
</g>
<!-- Operator2&#45;&gt;SolanaRPC -->
<g id="edge11" class="edge">
<title>Operator2&#45;&gt;SolanaRPC</title>
<path fill="none" stroke="green" d="M1034.33,-477.14C1200.62,-471.92 1647.5,-453.91 1696.38,-410.12 1728.97,-380.92 1740.77,-330.29 1745.02,-295.43"/>
<polygon fill="green" stroke="green" points="1748.47,-296.08 1746.03,-285.77 1741.51,-295.35 1748.47,-296.08"/>
<text xml:space="preserve" text-anchor="middle" x="1710.42" y="-426.62" font-family="Arial" font-size="10.00">4. Query RPC</text>
</g>
<!-- Operator2&#45;&gt;StakeCustody -->
<g id="edge20" class="edge">
<title>Operator2&#45;&gt;StakeCustody</title>
<path fill="none" stroke="green" stroke-dasharray="1,5" d="M1034.41,-476.01C1132.79,-470.97 1316.03,-459.4 1340.38,-442.12 1391.9,-405.57 1413.4,-330.09 1421.69,-287.88"/>
<polygon fill="green" stroke="green" points="1425.11,-288.63 1423.46,-278.16 1418.22,-287.37 1425.11,-288.63"/>
</g>
<!-- Operator3&#45;&gt;Aggregator -->
<g id="edge15" class="edge">
<title>Operator3&#45;&gt;Aggregator</title>
<path fill="none" stroke="red" d="M841.91,-499.93C853.51,-519.63 874.18,-548.51 901.38,-561.12 987.25,-600.97 1662.35,-587.12 1753.38,-561.12 1792.47,-549.96 1831.77,-524.59 1858,-505.15"/>
<polygon fill="red" stroke="red" points="1859.98,-508.04 1865.84,-499.21 1855.75,-502.46 1859.98,-508.04"/>
<text xml:space="preserve" text-anchor="middle" x="1458.38" y="-583.62" font-family="Arial" font-size="10.00">5. Signed</text>
<text xml:space="preserve" text-anchor="middle" x="1458.38" y="-571.62" font-family="Arial" font-size="10.00">Response</text>
</g>
<!-- Operator3&#45;&gt;LatencyAttestation -->
<g id="edge26" class="edge">
<title>Operator3&#45;&gt;LatencyAttestation</title>
<path fill="none" stroke="black" stroke-dasharray="5,2" d="M769.25,-461.83C766.6,-461.23 763.96,-460.66 761.38,-460.12 707.27,-448.96 687.77,-466.88 638.38,-442.12 572.26,-408.98 515.32,-343.22 482.69,-299.83"/>
<polygon fill="black" stroke="black" points="485.57,-297.84 476.8,-291.88 479.94,-302 485.57,-297.84"/>
</g>
<!-- Operator3&#45;&gt;SolanaRPC -->
<g id="edge12" class="edge">
<title>Operator3&#45;&gt;SolanaRPC</title>
<path fill="none" stroke="green" d="M893.43,-461.46C896.11,-460.96 898.76,-460.51 901.38,-460.12 1024.76,-441.87 1340.82,-470.08 1462.38,-442.12 1487.87,-436.26 1490.66,-424.14 1516.12,-418.12 1535.63,-413.51 1680.37,-422.2 1696.38,-410.12 1731.72,-383.47 1742.84,-331.32 1746.19,-295.49"/>
<polygon fill="green" stroke="green" points="1749.68,-295.77 1746.94,-285.54 1742.7,-295.25 1749.68,-295.77"/>
<text xml:space="preserve" text-anchor="middle" x="1547.25" y="-426.62" font-family="Arial" font-size="10.00">4. Query RPC</text>
</g>
<!-- Operator3&#45;&gt;StakeCustody -->
<g id="edge21" class="edge">
<title>Operator3&#45;&gt;StakeCustody</title>
<path fill="none" stroke="green" stroke-dasharray="1,5" d="M893.44,-461.5C896.11,-460.99 898.76,-460.53 901.38,-460.12 988.43,-446.65 1213.41,-468.78 1297.38,-442.12 1366.06,-420.32 1402.72,-334.22 1417.86,-287.75"/>
<polygon fill="green" stroke="green" points="1421.17,-288.89 1420.8,-278.3 1414.49,-286.81 1421.17,-288.89"/>
</g>
<!-- ChallengeResponse -->
<g id="node13" class="node">
<title>ChallengeResponse</title>
<polygon fill="none" stroke="black" points="546.88,-126 353.88,-126 353.88,-39.25 552.88,-39.25 552.88,-120 546.88,-126"/>
<polyline fill="none" stroke="black" points="546.88,-126 546.88,-120"/>
<polyline fill="none" stroke="black" points="552.88,-120 546.88,-120"/>
<text xml:space="preserve" text-anchor="middle" x="453.38" y="-108.7" font-family="Arial" font-size="14.00">Challenge&#45;Response Protocol:</text>
<text xml:space="preserve" text-anchor="middle" x="453.38" y="-92.95" font-family="Arial" font-size="14.00">1. Send challenge(nonce)</text>
<text xml:space="preserve" text-anchor="middle" x="453.38" y="-77.2" font-family="Arial" font-size="14.00">2. Receive signed response</text>
<text xml:space="preserve" text-anchor="middle" x="453.38" y="-61.45" font-family="Arial" font-size="14.00">3. Calculate RTT</text>
<text xml:space="preserve" text-anchor="middle" x="453.38" y="-45.7" font-family="Arial" font-size="14.00">4. Aggregate P50/P95/P99</text>
</g>
<!-- LatencyAttestation&#45;&gt;ChallengeResponse -->
<!-- LatencyAttestation&#45;&gt;Registry -->
<g id="edge27" class="edge">
<title>LatencyAttestation&#45;&gt;Registry</title>
<path fill="none" stroke="black" stroke-dasharray="5,2" d="M479.19,-289.54C508.29,-323.69 559.07,-375.01 616.38,-396.19 709.03,-430.43 1418.17,-442.59 1505.38,-396.19 1548.35,-373.32 1575.21,-321.07 1588.72,-287.4"/>
<polygon fill="black" stroke="black" points="1591.95,-288.76 1592.26,-278.17 1585.41,-286.26 1591.95,-288.76"/>
<text xml:space="preserve" text-anchor="middle" x="1148.38" y="-432.62" font-family="Arial" font-size="10.00">Commit P50/P95/P99</text>
<text xml:space="preserve" text-anchor="middle" x="1148.38" y="-420.62" font-family="Arial" font-size="10.00">per epoch</text>
</g>
<!-- SlashingEngine -->
<g id="node17" class="node">
<title>SlashingEngine</title>
<polygon fill="none" stroke="black" points="1180.12,-276.38 1177.12,-280.38 1156.12,-280.38 1153.12,-276.38 1066.62,-276.38 1066.62,-236.88 1180.12,-236.88 1180.12,-276.38"/>
<text xml:space="preserve" text-anchor="middle" x="1123.38" y="-259.07" font-family="Arial" font-size="14.00">Slashing Engine</text>
<text xml:space="preserve" text-anchor="middle" x="1123.38" y="-243.32" font-family="Arial" font-size="14.00">(Penalties)</text>
</g>
<!-- SlashingEngine&#45;&gt;Operator1 -->
<g id="edge22" class="edge">
<title>SlashingEngine&#45;&gt;Operator1</title>
<path fill="none" stroke="red" stroke-dasharray="1,5" d="M1119.97,-276.86C1112.9,-310.42 1093.21,-379.06 1046.38,-410.12 1024.56,-424.59 954.73,-414.06 928.88,-418.12 856.06,-429.59 836.79,-439.84 762.98,-459.43"/>
<polygon fill="red" stroke="red" points="762.45,-455.95 753.66,-461.87 764.22,-462.72 762.45,-455.95"/>
<text xml:space="preserve" text-anchor="middle" x="955.12" y="-432.62" font-family="Arial" font-size="10.00">Slash for</text>
<text xml:space="preserve" text-anchor="middle" x="955.12" y="-420.62" font-family="Arial" font-size="10.00">misbehavior</text>
</g>
<!-- SlashingConditions -->
<g id="node20" class="node">
<title>SlashingConditions</title>
<polygon fill="none" stroke="black" points="1253.62,-165.25 987.12,-165.25 987.12,0 1259.62,0 1259.62,-159.25 1253.62,-165.25"/>
<polyline fill="none" stroke="black" points="1253.62,-165.25 1253.62,-159.25"/>
<polyline fill="none" stroke="black" points="1259.62,-159.25 1253.62,-159.25"/>
<text xml:space="preserve" text-anchor="middle" x="1123.38" y="-147.95" font-family="Arial" font-size="14.00">Slashing Conditions:</text>
<text xml:space="preserve" text-anchor="middle" x="1123.38" y="-132.2" font-family="Arial" font-size="14.00">━━━━━━━━━━━━━━━━━━</text>
<text xml:space="preserve" text-anchor="middle" x="1123.38" y="-117.2" font-family="Arial" font-size="14.00">Incorrect data: 10%</text>
<text xml:space="preserve" text-anchor="middle" x="1123.38" y="-101.45" font-family="Arial" font-size="14.00">(Merkle proof mismatch)</text>
<text xml:space="preserve" text-anchor="middle" x="1123.38" y="-69.7" font-family="Arial" font-size="14.00">Latency violation: 1%</text>
<text xml:space="preserve" text-anchor="middle" x="1123.38" y="-53.95" font-family="Arial" font-size="14.00">(Peer attestation)</text>
<text xml:space="preserve" text-anchor="middle" x="1123.38" y="-22.2" font-family="Arial" font-size="14.00">Downtime: 0.5%</text>
<text xml:space="preserve" text-anchor="middle" x="1123.38" y="-6.45" font-family="Arial" font-size="14.00">(Missing heartbeats)</text>
</g>
<!-- SlashingEngine&#45;&gt;SlashingConditions -->
<!-- RewardsDistribution&#45;&gt;Operator1 -->
<g id="edge23" class="edge">
<title>RewardsDistribution&#45;&gt;Operator1</title>
<path fill="none" stroke="darkgreen" stroke-dasharray="1,5" d="M1264.8,-276.65C1257.39,-310.21 1236.89,-379.27 1189.38,-410.12 1176.77,-418.31 1069.14,-415.31 1054.38,-418.12 1020.83,-424.52 1014.85,-435.36 981.38,-442.12 888.27,-460.94 859.54,-444.58 763.54,-459.78"/>
<polygon fill="darkgreen" stroke="darkgreen" points="763.24,-456.28 753.95,-461.37 764.39,-463.18 763.24,-456.28"/>
<text xml:space="preserve" text-anchor="middle" x="1075.38" y="-432.62" font-family="Arial" font-size="10.00">Distribute</text>
<text xml:space="preserve" text-anchor="middle" x="1075.38" y="-420.62" font-family="Arial" font-size="10.00">fees</text>
</g>
<!-- TechStack -->
<g id="node21" class="node">
<title>TechStack</title>
<polygon fill="none" stroke="black" points="2234.38,-141.38 1996.38,-141.38 1996.38,-23.88 2240.38,-23.88 2240.38,-135.38 2234.38,-141.38"/>
<polyline fill="none" stroke="black" points="2234.38,-141.38 2234.38,-135.38"/>
<polyline fill="none" stroke="black" points="2240.38,-135.38 2234.38,-135.38"/>
<text xml:space="preserve" text-anchor="middle" x="2118.38" y="-124.08" font-family="Arial" font-size="14.00">Technology Stack:</text>
<text xml:space="preserve" text-anchor="middle" x="2118.38" y="-108.33" font-family="Arial" font-size="14.00">━━━━━━━━━━━━━━━━</text>
<text xml:space="preserve" text-anchor="middle" x="2118.38" y="-93.33" font-family="Arial" font-size="14.00">Operator: Rust</text>
<text xml:space="preserve" text-anchor="middle" x="2118.38" y="-77.58" font-family="Arial" font-size="14.00">Gateway: TypeScript/Node.js</text>
<text xml:space="preserve" text-anchor="middle" x="2118.38" y="-61.83" font-family="Arial" font-size="14.00">Contracts: Anchor (Rust)</text>
<text xml:space="preserve" text-anchor="middle" x="2118.38" y="-46.08" font-family="Arial" font-size="14.00">SDK: TypeScript</text>
<text xml:space="preserve" text-anchor="middle" x="2118.38" y="-30.32" font-family="Arial" font-size="14.00">Staking: Jito Restaking</text>
</g>
</g>
</svg>
