<?xml version="1.0" encoding="UTF-8" standalone="no"?>
<!DOCTYPE svg PUBLIC "-//W3C//DTD SVG 1.1//EN"
 "http://www.w3.org/Graphics/SVG/1.1/DTD/svg11.dtd">
<!-- Generated by graphviz version 2.43.0 (0)
 -->
<!-- Title: RPC_NCN_Components Pages: 1 -->
<svg width="4251pt" height="773pt"
 viewBox="0.00 0.00 4251.00 772.50" xmlns="http://www.w3.org/2000/svg" xmlns:xlink="http://www.w3.org/1999/xlink">
<g id="graph0" class="graph" transform="scale(1 1) rotate(0) translate(4 768.5)">
<title>RPC_NCN_Components</title>
<polygon fill="white" stroke="transparent" points="-4,4 -4,-768.5 4247,-768.5 4247,4 -4,4"/>
<text text-anchor="middle" x="2121.5" y="-746.1" font-family="Arial Bold" font-size="18.00">RPC&#45;NCN POC Component Architecture</text>
<g id="clust1" class="cluster">
<title>cluster_contracts</title>
<polygon fill="lightpink" stroke="lightpink" points="789.5,-537.5 789.5,-728.5 2433.5,-728.5 2433.5,-537.5 789.5,-537.5"/>
<text text-anchor="middle" x="1611.5" y="-713.3" font-family="Arial Bold" font-size="14.00">On&#45;Chain Program (Anchor/Rust)</text>
<text text-anchor="middle" x="1611.5" y="-698.3" font-family="Arial Bold" font-size="14.00">contracts/programs/rpc&#45;ncn/</text>
</g>
<g id="clust3" class="cluster">
<title>cluster_instructions</title>
<polygon fill="lightcoral" stroke="lightcoral" points="1102.5,-545.5 1102.5,-682.5 2425.5,-682.5 2425.5,-545.5 1102.5,-545.5"/>
<text text-anchor="middle" x="1764" y="-667.3" font-family="Arial Bold" font-size="14.00">Instructions</text>
</g>
<g id="clust4" class="cluster">
<title>cluster_operator</title>
<polygon fill="lightyellow" stroke="lightyellow" points="2441.5,-15.5 2441.5,-697.5 2896.5,-697.5 2896.5,-15.5 2441.5,-15.5"/>
<text text-anchor="middle" x="2669" y="-682.3" font-family="Arial Bold" font-size="14.00">Operator Node (Rust)</text>
<text text-anchor="middle" x="2669" y="-667.3" font-family="Arial Bold" font-size="14.00">operator&#45;node/src/</text>
</g>
<g id="clust5" class="cluster">
<title>cluster_op_modules</title>
<polygon fill="khaki" stroke="khaki" points="2449.5,-23.5 2449.5,-471.5 2888.5,-471.5 2888.5,-23.5 2449.5,-23.5"/>
<text text-anchor="middle" x="2669" y="-456.3" font-family="Arial Bold" font-size="14.00">Core Modules</text>
</g>
<g id="clust6" class="cluster">
<title>cluster_gateway</title>
<polygon fill="lightgreen" stroke="lightgreen" points="3040.5,-8 3040.5,-494 3906.5,-494 3906.5,-8 3040.5,-8"/>
<text text-anchor="middle" x="3473.5" y="-478.8" font-family="Arial Bold" font-size="14.00">Gateway (TypeScript/Node.js)</text>
<text text-anchor="middle" x="3473.5" y="-463.8" font-family="Arial Bold" font-size="14.00">gateway/src/</text>
</g>
<g id="clust7" class="cluster">
<title>cluster_gw_modules</title>
<polygon fill="lightseagreen" stroke="lightseagreen" points="3048.5,-16 3048.5,-298 3898.5,-298 3898.5,-16 3048.5,-16"/>
<text text-anchor="middle" x="3473.5" y="-282.8" font-family="Arial Bold" font-size="14.00">Core Modules</text>
</g>
<g id="clust8" class="cluster">
<title>cluster_sdk</title>
<polygon fill="lightblue" stroke="lightblue" points="3137.5,-553 3137.5,-690 3672.5,-690 3672.5,-553 3137.5,-553"/>
<text text-anchor="middle" x="3405" y="-674.8" font-family="Arial Bold" font-size="14.00">Client SDK (TypeScript)</text>
<text text-anchor="middle" x="3405" y="-659.8" font-family="Arial Bold" font-size="14.00">client&#45;sdk/src/</text>
</g>
<!-- NCN -->
<g id="node1" class="node">
<title>NCN</title>
<polygon fill="none" stroke="black" points="185,-666.5 182,-670.5 161,-670.5 158,-666.5 0,-666.5 0,-538.5 185,-538.5 185,-666.5"/>
<text text-anchor="middle" x="92.5" y="-651.3" font-family="Arial" font-size="14.00">NCN</text>
<text text-anchor="middle" x="92.5" y="-636.3" font-family="Arial" font-size="14.00">━━━━━━━━━━━</text>
<text text-anchor="middle" x="92.5" y="-621.3" font-family="Arial" font-size="14.00">• authority: Pubkey</text>
<text text-anchor="middle" x="92.5" y="-606.3" font-family="Arial" font-size="14.00">• current_interval: u64</text>
<text text-anchor="middle" x="92.5" y="-591.3" font-family="Arial" font-size="14.00">• current_epoch: u64</text>
<text text-anchor="middle" x="92.5" y="-576.3" font-family="Arial" font-size="14.00">• total_stake: u64</text>
<text text-anchor="middle" x="92.5" y="-561.3" font-family="Arial" font-size="14.00">• operator_count: u8</text>
<text text-anchor="middle" x="92.5" y="-546.3" font-family="Arial" font-size="14.00">• requests_per_interval: u64</text>
</g>
<!-- Operator -->
<g id="node2" class="node">
<title>Operator</title>
<polygon fill="none" stroke="black" points="370.5,-674 367.5,-678 346.5,-678 343.5,-674 202.5,-674 202.5,-531 370.5,-531 370.5,-674"/>
<text text-anchor="middle" x="286.5" y="-658.8" font-family="Arial" font-size="14.00">Operator</text>
<text text-anchor="middle" x="286.5" y="-643.8" font-family="Arial" font-size="14.00">━━━━━━━━━━━</text>
<text text-anchor="middle" x="286.5" y="-628.8" font-family="Arial" font-size="14.00">• owner: Pubkey</text>
<text text-anchor="middle" x="286.5" y="-613.8" font-family="Arial" font-size="14.00">• operator_id: String</text>
<text text-anchor="middle" x="286.5" y="-598.8" font-family="Arial" font-size="14.00">• signing_pubkey: [u8;32]</text>
<text text-anchor="middle" x="286.5" y="-583.8" font-family="Arial" font-size="14.00">• stake: u64</text>
<text text-anchor="middle" x="286.5" y="-568.8" font-family="Arial" font-size="14.00">• is_active: bool</text>
<text text-anchor="middle" x="286.5" y="-553.8" font-family="Arial" font-size="14.00">• correct_intervals: u32</text>
<text text-anchor="middle" x="286.5" y="-538.8" font-family="Arial" font-size="14.00">• offense_count: u8</text>
</g>
<!-- Interval -->
<g id="node3" class="node">
<title>Interval</title>
<polygon fill="none" stroke="black" points="621,-666.5 618,-670.5 597,-670.5 594,-666.5 388,-666.5 388,-538.5 621,-538.5 621,-666.5"/>
<text text-anchor="middle" x="504.5" y="-651.3" font-family="Arial" font-size="14.00">Interval</text>
<text text-anchor="middle" x="504.5" y="-636.3" font-family="Arial" font-size="14.00">━━━━━━━━━━━</text>
<text text-anchor="middle" x="504.5" y="-621.3" font-family="Arial" font-size="14.00">• interval_id: u64</text>
<text text-anchor="middle" x="504.5" y="-606.3" font-family="Arial" font-size="14.00">• epoch: u64</text>
<text text-anchor="middle" x="504.5" y="-591.3" font-family="Arial" font-size="14.00">• consensus_hash: Option&lt;[u8;32]&gt;</text>
<text text-anchor="middle" x="504.5" y="-576.3" font-family="Arial" font-size="14.00">• quorum_bps: u16</text>
<text text-anchor="middle" x="504.5" y="-561.3" font-family="Arial" font-size="14.00">• finalized: bool</text>
<text text-anchor="middle" x="504.5" y="-546.3" font-family="Arial" font-size="14.00">• attestation_count: u8</text>
</g>
<!-- Attestation -->
<g id="node4" class="node">
<title>Attestation</title>
<polygon fill="none" stroke="black" points="779.5,-659 776.5,-663 755.5,-663 752.5,-659 639.5,-659 639.5,-546 779.5,-546 779.5,-659"/>
<text text-anchor="middle" x="709.5" y="-643.8" font-family="Arial" font-size="14.00">OperatorAttestation</text>
<text text-anchor="middle" x="709.5" y="-628.8" font-family="Arial" font-size="14.00">━━━━━━━━━━━</text>
<text text-anchor="middle" x="709.5" y="-613.8" font-family="Arial" font-size="14.00">• operator: Pubkey</text>
<text text-anchor="middle" x="709.5" y="-598.8" font-family="Arial" font-size="14.00">• interval_id: u64</text>
<text text-anchor="middle" x="709.5" y="-583.8" font-family="Arial" font-size="14.00">• state_hash: [u8;32]</text>
<text text-anchor="middle" x="709.5" y="-568.8" font-family="Arial" font-size="14.00">• signature: [u8;64]</text>
<text text-anchor="middle" x="709.5" y="-553.8" font-family="Arial" font-size="14.00">• submitted_at: i64</text>
</g>
<!-- Initialize -->
<g id="node5" class="node">
<title>Initialize</title>
<polygon fill="none" stroke="black" points="2417,-636.5 2276,-636.5 2276,-632.5 2272,-632.5 2272,-628.5 2276,-628.5 2276,-576.5 2272,-576.5 2272,-572.5 2276,-572.5 2276,-568.5 2417,-568.5 2417,-636.5"/>
<polyline fill="none" stroke="black" points="2276,-632.5 2280,-632.5 2280,-628.5 2276,-628.5 "/>
<polyline fill="none" stroke="black" points="2276,-576.5 2280,-576.5 2280,-572.5 2276,-572.5 "/>
<text text-anchor="middle" x="2346.5" y="-621.3" font-family="Arial" font-size="14.00">initialize</text>
<text text-anchor="middle" x="2346.5" y="-606.3" font-family="Arial" font-size="14.00">━━━━━━━━━━━</text>
<text text-anchor="middle" x="2346.5" y="-591.3" font-family="Arial" font-size="14.00">Create NCN account</text>
<text text-anchor="middle" x="2346.5" y="-576.3" font-family="Arial" font-size="14.00">Set configuration</text>
</g>
<!-- RegisterOperator -->
<g id="node6" class="node">
<title>RegisterOperator</title>
<polygon fill="none" stroke="black" points="2258,-636.5 2115,-636.5 2115,-632.5 2111,-632.5 2111,-628.5 2115,-628.5 2115,-576.5 2111,-576.5 2111,-572.5 2115,-572.5 2115,-568.5 2258,-568.5 2258,-636.5"/>
<polyline fill="none" stroke="black" points="2115,-632.5 2119,-632.5 2119,-628.5 2115,-628.5 "/>
<polyline fill="none" stroke="black" points="2115,-576.5 2119,-576.5 2119,-572.5 2115,-572.5 "/>
<text text-anchor="middle" x="2186.5" y="-621.3" font-family="Arial" font-size="14.00">register_operator</text>
<text text-anchor="middle" x="2186.5" y="-606.3" font-family="Arial" font-size="14.00">━━━━━━━━━━━</text>
<text text-anchor="middle" x="2186.5" y="-591.3" font-family="Arial" font-size="14.00">Create operator PDA</text>
<text text-anchor="middle" x="2186.5" y="-576.3" font-family="Arial" font-size="14.00">Set signing pubkey</text>
</g>
<!-- SyncOperatorStake -->
<g id="node7" class="node">
<title>SyncOperatorStake</title>
<polygon fill="none" stroke="black" points="2096.5,-636.5 1950.5,-636.5 1950.5,-632.5 1946.5,-632.5 1946.5,-628.5 1950.5,-628.5 1950.5,-576.5 1946.5,-576.5 1946.5,-572.5 1950.5,-572.5 1950.5,-568.5 2096.5,-568.5 2096.5,-636.5"/>
<polyline fill="none" stroke="black" points="1950.5,-632.5 1954.5,-632.5 1954.5,-628.5 1950.5,-628.5 "/>
<polyline fill="none" stroke="black" points="1950.5,-576.5 1954.5,-576.5 1954.5,-572.5 1950.5,-572.5 "/>
<text text-anchor="middle" x="2023.5" y="-621.3" font-family="Arial" font-size="14.00">sync_operator_stake</text>
<text text-anchor="middle" x="2023.5" y="-606.3" font-family="Arial" font-size="14.00">━━━━━━━━━━━</text>
<text text-anchor="middle" x="2023.5" y="-591.3" font-family="Arial" font-size="14.00">Update stake amount</text>
<text text-anchor="middle" x="2023.5" y="-576.3" font-family="Arial" font-size="14.00">Update NCN totals</text>
</g>
<!-- CreateInterval -->
<g id="node8" class="node">
<title>CreateInterval</title>
<polygon fill="none" stroke="black" points="1932.5,-636.5 1766.5,-636.5 1766.5,-632.5 1762.5,-632.5 1762.5,-628.5 1766.5,-628.5 1766.5,-576.5 1762.5,-576.5 1762.5,-572.5 1766.5,-572.5 1766.5,-568.5 1932.5,-568.5 1932.5,-636.5"/>
<polyline fill="none" stroke="black" points="1766.5,-632.5 1770.5,-632.5 1770.5,-628.5 1766.5,-628.5 "/>
<polyline fill="none" stroke="black" points="1766.5,-576.5 1770.5,-576.5 1770.5,-572.5 1766.5,-572.5 "/>
<text text-anchor="middle" x="1849.5" y="-621.3" font-family="Arial" font-size="14.00">create_interval</text>
<text text-anchor="middle" x="1849.5" y="-606.3" font-family="Arial" font-size="14.00">━━━━━━━━━━━</text>
<text text-anchor="middle" x="1849.5" y="-591.3" font-family="Arial" font-size="14.00">Create new interval</text>
<text text-anchor="middle" x="1849.5" y="-576.3" font-family="Arial" font-size="14.00">Advance current_interval</text>
</g>
<!-- SubmitAttestation -->
<g id="node9" class="node">
<title>SubmitAttestation</title>
<polygon fill="none" stroke="black" points="1748.5,-651.5 1576.5,-651.5 1576.5,-647.5 1572.5,-647.5 1572.5,-643.5 1576.5,-643.5 1576.5,-561.5 1572.5,-561.5 1572.5,-557.5 1576.5,-557.5 1576.5,-553.5 1748.5,-553.5 1748.5,-651.5"/>
<polyline fill="none" stroke="black" points="1576.5,-647.5 1580.5,-647.5 1580.5,-643.5 1576.5,-643.5 "/>
<polyline fill="none" stroke="black" points="1576.5,-561.5 1580.5,-561.5 1580.5,-557.5 1576.5,-557.5 "/>
<text text-anchor="middle" x="1662.5" y="-636.3" font-family="Arial" font-size="14.00">submit_attestation</text>
<text text-anchor="middle" x="1662.5" y="-621.3" font-family="Arial" font-size="14.00">━━━━━━━━━━━</text>
<text text-anchor="middle" x="1662.5" y="-606.3" font-family="Arial" font-size="14.00">• Verify ED25519 sig</text>
<text text-anchor="middle" x="1662.5" y="-591.3" font-family="Arial" font-size="14.00">• Store attestation</text>
<text text-anchor="middle" x="1662.5" y="-576.3" font-family="Arial" font-size="14.00">• Auto&#45;create next interval</text>
<text text-anchor="middle" x="1662.5" y="-561.3" font-family="Arial" font-size="14.00">• Auto&#45;advance epoch</text>
</g>
<!-- FinalizeInterval -->
<g id="node10" class="node">
<title>FinalizeInterval</title>
<polygon fill="none" stroke="black" points="1558,-644 1385,-644 1385,-640 1381,-640 1381,-636 1385,-636 1385,-569 1381,-569 1381,-565 1385,-565 1385,-561 1558,-561 1558,-644"/>
<polyline fill="none" stroke="black" points="1385,-640 1389,-640 1389,-636 1385,-636 "/>
<polyline fill="none" stroke="black" points="1385,-569 1389,-569 1389,-565 1385,-565 "/>
<text text-anchor="middle" x="1471.5" y="-628.8" font-family="Arial" font-size="14.00">finalize_interval</text>
<text text-anchor="middle" x="1471.5" y="-613.8" font-family="Arial" font-size="14.00">━━━━━━━━━━━</text>
<text text-anchor="middle" x="1471.5" y="-598.8" font-family="Arial" font-size="14.00">Compute consensus hash</text>
<text text-anchor="middle" x="1471.5" y="-583.8" font-family="Arial" font-size="14.00">Calculate quorum %</text>
<text text-anchor="middle" x="1471.5" y="-568.8" font-family="Arial" font-size="14.00">Update operator stats</text>
</g>
<!-- FinalizeEpoch -->
<g id="node11" class="node">
<title>FinalizeEpoch</title>
<polygon fill="none" stroke="black" points="1367,-644 1242,-644 1242,-640 1238,-640 1238,-636 1242,-636 1242,-569 1238,-569 1238,-565 1242,-565 1242,-561 1367,-561 1367,-644"/>
<polyline fill="none" stroke="black" points="1242,-640 1246,-640 1246,-636 1242,-636 "/>
<polyline fill="none" stroke="black" points="1242,-569 1246,-569 1246,-565 1242,-565 "/>
<text text-anchor="middle" x="1304.5" y="-628.8" font-family="Arial" font-size="14.00">finalize_epoch</text>
<text text-anchor="middle" x="1304.5" y="-613.8" font-family="Arial" font-size="14.00">━━━━━━━━━━━</text>
<text text-anchor="middle" x="1304.5" y="-598.8" font-family="Arial" font-size="14.00">Distribute rewards</text>
<text text-anchor="middle" x="1304.5" y="-583.8" font-family="Arial" font-size="14.00">Track offenses</text>
<text text-anchor="middle" x="1304.5" y="-568.8" font-family="Arial" font-size="14.00">Reset counters</text>
</g>
<!-- CloseAccount -->
<g id="node12" class="node">
<title>CloseAccount</title>
<polygon fill="none" stroke="black" points="1224,-636.5 1111,-636.5 1111,-632.5 1107,-632.5 1107,-628.5 1111,-628.5 1111,-576.5 1107,-576.5 1107,-572.5 1111,-572.5 1111,-568.5 1224,-568.5 1224,-636.5"/>
<polyline fill="none" stroke="black" points="1111,-632.5 1115,-632.5 1115,-628.5 1111,-628.5 "/>
<polyline fill="none" stroke="black" points="1111,-576.5 1115,-576.5 1115,-572.5 1111,-572.5 "/>
<text text-anchor="middle" x="1167.5" y="-621.3" font-family="Arial" font-size="14.00">close_account</text>
<text text-anchor="middle" x="1167.5" y="-606.3" font-family="Arial" font-size="14.00">━━━━━━━━━━━</text>
<text text-anchor="middle" x="1167.5" y="-591.3" font-family="Arial" font-size="14.00">Reclaim rent</text>
<text text-anchor="middle" x="1167.5" y="-576.3" font-family="Arial" font-size="14.00">Return lamports</text>
</g>
<!-- PDAs -->
<g id="node13" class="node">
<title>PDAs</title>
<polygon fill="none" stroke="black" points="1087,-651.5 798,-651.5 798,-553.5 1093,-553.5 1093,-645.5 1087,-651.5"/>
<polyline fill="none" stroke="black" points="1087,-651.5 1087,-645.5 "/>
<polyline fill="none" stroke="black" points="1093,-645.5 1087,-645.5 "/>
<text text-anchor="middle" x="945.5" y="-636.3" font-family="Arial" font-size="14.00">PDA Seeds</text>
<text text-anchor="middle" x="945.5" y="-621.3" font-family="Arial" font-size="14.00">━━━━━━━━━━━━━━━━━</text>
<text text-anchor="middle" x="945.5" y="-606.3" font-family="Arial" font-size="14.00">NCN: [&quot;ncn&quot;]</text>
<text text-anchor="middle" x="945.5" y="-591.3" font-family="Arial" font-size="14.00">Operator: [&quot;operator&quot;, operator_id]</text>
<text text-anchor="middle" x="945.5" y="-576.3" font-family="Arial" font-size="14.00">Interval: [&quot;interval&quot;, ncn, interval_id]</text>
<text text-anchor="middle" x="945.5" y="-561.3" font-family="Arial" font-size="14.00">Attestation: [&quot;attestation&quot;, operator, interval_id]</text>
</g>
<!-- OperatorMain -->
<g id="node14" class="node">
<title>OperatorMain</title>
<polygon fill="none" stroke="black" points="2883,-651.5 2696,-651.5 2692,-647.5 2692,-553.5 2879,-553.5 2883,-557.5 2883,-651.5"/>
<polyline fill="none" stroke="black" points="2879,-647.5 2692,-647.5 "/>
<polyline fill="none" stroke="black" points="2879,-647.5 2879,-553.5 "/>
<polyline fill="none" stroke="black" points="2879,-647.5 2883,-651.5 "/>
<text text-anchor="middle" x="2787.5" y="-636.3" font-family="Arial" font-size="14.00">main.rs</text>
<text text-anchor="middle" x="2787.5" y="-621.3" font-family="Arial" font-size="14.00">━━━━━━━━━━━</text>
<text text-anchor="middle" x="2787.5" y="-606.3" font-family="Arial" font-size="14.00">• Parse env config</text>
<text text-anchor="middle" x="2787.5" y="-591.3" font-family="Arial" font-size="14.00">• Start HTTP server</text>
<text text-anchor="middle" x="2787.5" y="-576.3" font-family="Arial" font-size="14.00">• Wire up attestation callback</text>
<text text-anchor="middle" x="2787.5" y="-561.3" font-family="Arial" font-size="14.00">• Handle interval transitions</text>
</g>
<!-- RpcProxy -->
<g id="node15" class="node">
<title>RpcProxy</title>
<polygon fill="none" stroke="black" points="2668.5,-433 2480.5,-433 2480.5,-429 2476.5,-429 2476.5,-425 2480.5,-425 2480.5,-358 2476.5,-358 2476.5,-354 2480.5,-354 2480.5,-350 2668.5,-350 2668.5,-433"/>
<polyline fill="none" stroke="black" points="2480.5,-429 2484.5,-429 2484.5,-425 2480.5,-425 "/>
<polyline fill="none" stroke="black" points="2480.5,-358 2484.5,-358 2484.5,-354 2480.5,-354 "/>
<text text-anchor="middle" x="2574.5" y="-417.8" font-family="Arial" font-size="14.00">rpc_proxy.rs</text>
<text text-anchor="middle" x="2574.5" y="-402.8" font-family="Arial" font-size="14.00">━━━━━━━━━━━</text>
<text text-anchor="middle" x="2574.5" y="-387.8" font-family="Arial" font-size="14.00">• Proxy to Solana RPC</text>
<text text-anchor="middle" x="2574.5" y="-372.8" font-family="Arial" font-size="14.00">• Sign responses (ED25519)</text>
<text text-anchor="middle" x="2574.5" y="-357.8" font-family="Arial" font-size="14.00">• Return signed envelope</text>
</g>
<!-- OperatorMain&#45;&gt;RpcProxy -->
<g id="edge1" class="edge">
<title>OperatorMain&#45;&gt;RpcProxy</title>
<path fill="none" stroke="black" d="M2691.9,-561C2635.28,-561 2574.5,-561 2574.5,-561 2574.5,-561 2574.5,-443.4 2574.5,-443.4"/>
<polygon fill="black" stroke="black" points="2578,-443.4 2574.5,-433.4 2571,-443.4 2578,-443.4"/>
<text text-anchor="middle" x="2673.5" y="-505" font-family="Arial" font-size="10.00">handle request</text>
</g>
<!-- IntervalHandler -->
<g id="node17" class="node">
<title>IntervalHandler</title>
<polygon fill="none" stroke="black" points="2881,-440.5 2694,-440.5 2694,-436.5 2690,-436.5 2690,-432.5 2694,-432.5 2694,-350.5 2690,-350.5 2690,-346.5 2694,-346.5 2694,-342.5 2881,-342.5 2881,-440.5"/>
<polyline fill="none" stroke="black" points="2694,-436.5 2698,-436.5 2698,-432.5 2694,-432.5 "/>
<polyline fill="none" stroke="black" points="2694,-350.5 2698,-350.5 2698,-346.5 2694,-346.5 "/>
<text text-anchor="middle" x="2787.5" y="-425.3" font-family="Arial" font-size="14.00">interval_handler.rs</text>
<text text-anchor="middle" x="2787.5" y="-410.3" font-family="Arial" font-size="14.00">━━━━━━━━━━━</text>
<text text-anchor="middle" x="2787.5" y="-395.3" font-family="Arial" font-size="14.00">• Track current interval</text>
<text text-anchor="middle" x="2787.5" y="-380.3" font-family="Arial" font-size="14.00">• Detect transitions</text>
<text text-anchor="middle" x="2787.5" y="-365.3" font-family="Arial" font-size="14.00">• Trigger attestation callback</text>
<text text-anchor="middle" x="2787.5" y="-350.3" font-family="Arial" font-size="14.00">• Epoch detection</text>
</g>
<!-- OperatorMain&#45;&gt;IntervalHandler -->
<g id="edge3" class="edge">
<title>OperatorMain&#45;&gt;IntervalHandler</title>
<path fill="none" stroke="black" d="M2787.5,-553.3C2787.5,-553.3 2787.5,-450.78 2787.5,-450.78"/>
<polygon fill="black" stroke="black" points="2791,-450.78 2787.5,-440.78 2784,-450.78 2791,-450.78"/>
<text text-anchor="middle" x="2818" y="-505" font-family="Arial" font-size="10.00">check interval</text>
</g>
<!-- SolanaRPC -->
<g id="node31" class="node">
<title>SolanaRPC</title>
<path fill="none" stroke="black" d="M4034,-94.48C4034,-97.11 4007.33,-99.25 3974.5,-99.25 3941.67,-99.25 3915,-97.11 3915,-94.48 3915,-94.48 3915,-51.52 3915,-51.52 3915,-48.89 3941.67,-46.75 3974.5,-46.75 4007.33,-46.75 4034,-48.89 4034,-51.52 4034,-51.52 4034,-94.48 4034,-94.48"/>
<path fill="none" stroke="black" d="M4034,-94.48C4034,-91.84 4007.33,-89.7 3974.5,-89.7 3941.67,-89.7 3915,-91.84 3915,-94.48"/>
<text text-anchor="middle" x="3974.5" y="-76.8" font-family="Arial" font-size="14.00">Solana RPC</text>
<text text-anchor="middle" x="3974.5" y="-61.8" font-family="Arial" font-size="14.00">(testnet/mainnet)</text>
</g>
<!-- OperatorMain&#45;&gt;SolanaRPC -->
<g id="edge12" class="edge">
<title>OperatorMain&#45;&gt;SolanaRPC</title>
<path fill="none" stroke="blue" d="M2883.13,-557C3165.26,-557 3974.5,-557 3974.5,-557 3974.5,-557 3974.5,-109.37 3974.5,-109.37"/>
<polygon fill="blue" stroke="blue" points="3978,-109.37 3974.5,-99.37 3971,-109.37 3978,-109.37"/>
<text text-anchor="middle" x="3999" y="-309" font-family="Arial" font-size="10.00">proxy RPC</text>
</g>
<!-- HashChainMod -->
<g id="node16" class="node">
<title>HashChainMod</title>
<polygon fill="none" stroke="black" points="2678,-267 2457,-267 2457,-263 2453,-263 2453,-259 2457,-259 2457,-177 2453,-177 2453,-173 2457,-173 2457,-169 2678,-169 2678,-267"/>
<polyline fill="none" stroke="black" points="2457,-263 2461,-263 2461,-259 2457,-259 "/>
<polyline fill="none" stroke="black" points="2457,-177 2461,-177 2461,-173 2457,-173 "/>
<text text-anchor="middle" x="2567.5" y="-251.8" font-family="Arial" font-size="14.00">hash_chain.rs</text>
<text text-anchor="middle" x="2567.5" y="-236.8" font-family="Arial" font-size="14.00">━━━━━━━━━━━</text>
<text text-anchor="middle" x="2567.5" y="-221.8" font-family="Arial" font-size="14.00">• Sequential response hashing</text>
<text text-anchor="middle" x="2567.5" y="-206.8" font-family="Arial" font-size="14.00">• SHA256 chain: H(prev || current)</text>
<text text-anchor="middle" x="2567.5" y="-191.8" font-family="Arial" font-size="14.00">• Reset on interval change</text>
<text text-anchor="middle" x="2567.5" y="-176.8" font-family="Arial" font-size="14.00">• Track response count</text>
</g>
<!-- RpcProxy&#45;&gt;HashChainMod -->
<g id="edge2" class="edge">
<title>RpcProxy&#45;&gt;HashChainMod</title>
<path fill="none" stroke="black" d="M2574.5,-349.94C2574.5,-349.94 2574.5,-277.23 2574.5,-277.23"/>
<polygon fill="black" stroke="black" points="2578,-277.23 2574.5,-267.23 2571,-277.23 2578,-277.23"/>
<text text-anchor="middle" x="2598.5" y="-309" font-family="Arial" font-size="10.00">add to chain</text>
</g>
<!-- AttestSubmitter -->
<g id="node18" class="node">
<title>AttestSubmitter</title>
<polygon fill="none" stroke="black" points="2880.5,-267 2696.5,-267 2696.5,-263 2692.5,-263 2692.5,-259 2696.5,-259 2696.5,-177 2692.5,-177 2692.5,-173 2696.5,-173 2696.5,-169 2880.5,-169 2880.5,-267"/>
<polyline fill="none" stroke="black" points="2696.5,-263 2700.5,-263 2700.5,-259 2696.5,-259 "/>
<polyline fill="none" stroke="black" points="2696.5,-177 2700.5,-177 2700.5,-173 2696.5,-173 "/>
<text text-anchor="middle" x="2788.5" y="-251.8" font-family="Arial" font-size="14.00">attestation_submitter.rs</text>
<text text-anchor="middle" x="2788.5" y="-236.8" font-family="Arial" font-size="14.00">━━━━━━━━━━━</text>
<text text-anchor="middle" x="2788.5" y="-221.8" font-family="Arial" font-size="14.00">• Build submit_attestation tx</text>
<text text-anchor="middle" x="2788.5" y="-206.8" font-family="Arial" font-size="14.00">• Derive PDAs</text>
<text text-anchor="middle" x="2788.5" y="-191.8" font-family="Arial" font-size="14.00">• Sign with operator key</text>
<text text-anchor="middle" x="2788.5" y="-176.8" font-family="Arial" font-size="14.00">• Submit to Solana</text>
</g>
<!-- IntervalHandler&#45;&gt;AttestSubmitter -->
<g id="edge4" class="edge">
<title>IntervalHandler&#45;&gt;AttestSubmitter</title>
<path fill="none" stroke="black" d="M2788.5,-342.25C2788.5,-342.25 2788.5,-277.08 2788.5,-277.08"/>
<polygon fill="black" stroke="black" points="2792,-277.08 2788.5,-267.08 2785,-277.08 2792,-277.08"/>
<text text-anchor="middle" x="2819.5" y="-309" font-family="Arial" font-size="10.00">on interval end</text>
</g>
<!-- Signer -->
<g id="node19" class="node">
<title>Signer</title>
<polygon fill="none" stroke="black" points="2863,-114.5 2714,-114.5 2714,-110.5 2710,-110.5 2710,-106.5 2714,-106.5 2714,-39.5 2710,-39.5 2710,-35.5 2714,-35.5 2714,-31.5 2863,-31.5 2863,-114.5"/>
<polyline fill="none" stroke="black" points="2714,-110.5 2718,-110.5 2718,-106.5 2714,-106.5 "/>
<polyline fill="none" stroke="black" points="2714,-39.5 2718,-39.5 2718,-35.5 2714,-35.5 "/>
<text text-anchor="middle" x="2788.5" y="-99.3" font-family="Arial" font-size="14.00">signer.rs</text>
<text text-anchor="middle" x="2788.5" y="-84.3" font-family="Arial" font-size="14.00">━━━━━━━━━━━</text>
<text text-anchor="middle" x="2788.5" y="-69.3" font-family="Arial" font-size="14.00">• ED25519 keypair</text>
<text text-anchor="middle" x="2788.5" y="-54.3" font-family="Arial" font-size="14.00">• Sign attestation data</text>
<text text-anchor="middle" x="2788.5" y="-39.3" font-family="Arial" font-size="14.00">• Load from file</text>
</g>
<!-- AttestSubmitter&#45;&gt;Signer -->
<g id="edge5" class="edge">
<title>AttestSubmitter&#45;&gt;Signer</title>
<path fill="none" stroke="black" d="M2788.5,-168.91C2788.5,-168.91 2788.5,-124.78 2788.5,-124.78"/>
<polygon fill="black" stroke="black" points="2792,-124.78 2788.5,-114.78 2785,-124.78 2792,-124.78"/>
<text text-anchor="middle" x="2822" y="-143" font-family="Arial" font-size="10.00">sign attestation</text>
</g>
<!-- SolanaChain -->
<g id="node32" class="node">
<title>SolanaChain</title>
<path fill="none" stroke="black" d="M3032.5,-87.73C3032.5,-89.53 3003.81,-91 2968.5,-91 2933.19,-91 2904.5,-89.53 2904.5,-87.73 2904.5,-87.73 2904.5,-58.27 2904.5,-58.27 2904.5,-56.47 2933.19,-55 2968.5,-55 3003.81,-55 3032.5,-56.47 3032.5,-58.27 3032.5,-58.27 3032.5,-87.73 3032.5,-87.73"/>
<path fill="none" stroke="black" d="M3032.5,-87.73C3032.5,-85.92 3003.81,-84.45 2968.5,-84.45 2933.19,-84.45 2904.5,-85.92 2904.5,-87.73"/>
<text text-anchor="middle" x="2968.5" y="-69.3" font-family="Arial" font-size="14.00">Solana Blockchain</text>
</g>
<!-- AttestSubmitter&#45;&gt;SolanaChain -->
<g id="edge13" class="edge">
<title>AttestSubmitter&#45;&gt;SolanaChain</title>
<path fill="none" stroke="red" stroke-width="2" d="M2871.75,-168.91C2871.75,-126.84 2871.75,-73 2871.75,-73 2871.75,-73 2894.24,-73 2894.24,-73"/>
<polygon fill="red" stroke="red" stroke-width="2" points="2894.24,-76.5 2904.24,-73 2894.24,-69.5 2894.24,-76.5"/>
<text text-anchor="middle" x="2928" y="-143" font-family="Arial" font-size="10.00">submit_attestation</text>
</g>
<!-- GatewayIndex -->
<g id="node20" class="node">
<title>GatewayIndex</title>
<polygon fill="none" stroke="black" points="3525.5,-448 3345.5,-448 3341.5,-444 3341.5,-335 3521.5,-335 3525.5,-339 3525.5,-448"/>
<polyline fill="none" stroke="black" points="3521.5,-444 3341.5,-444 "/>
<polyline fill="none" stroke="black" points="3521.5,-444 3521.5,-335 "/>
<polyline fill="none" stroke="black" points="3521.5,-444 3525.5,-448 "/>
<text text-anchor="middle" x="3433.5" y="-432.8" font-family="Arial" font-size="14.00">index.ts</text>
<text text-anchor="middle" x="3433.5" y="-417.8" font-family="Arial" font-size="14.00">━━━━━━━━━━━</text>
<text text-anchor="middle" x="3433.5" y="-402.8" font-family="Arial" font-size="14.00">• Express HTTP server</text>
<text text-anchor="middle" x="3433.5" y="-387.8" font-family="Arial" font-size="14.00">• POST /rpc endpoint</text>
<text text-anchor="middle" x="3433.5" y="-372.8" font-family="Arial" font-size="14.00">• Operator registration</text>
<text text-anchor="middle" x="3433.5" y="-357.8" font-family="Arial" font-size="14.00">• Subscription management</text>
<text text-anchor="middle" x="3433.5" y="-342.8" font-family="Arial" font-size="14.00">• Sync on&#45;chain state</text>
</g>
<!-- Router -->
<g id="node21" class="node">
<title>Router</title>
<polygon fill="none" stroke="black" points="3574.5,-267 3416.5,-267 3416.5,-263 3412.5,-263 3412.5,-259 3416.5,-259 3416.5,-177 3412.5,-177 3412.5,-173 3416.5,-173 3416.5,-169 3574.5,-169 3574.5,-267"/>
<polyline fill="none" stroke="black" points="3416.5,-263 3420.5,-263 3420.5,-259 3416.5,-259 "/>
<polyline fill="none" stroke="black" points="3416.5,-177 3420.5,-177 3420.5,-173 3416.5,-173 "/>
<text text-anchor="middle" x="3495.5" y="-251.8" font-family="Arial" font-size="14.00">router.ts</text>
<text text-anchor="middle" x="3495.5" y="-236.8" font-family="Arial" font-size="14.00">━━━━━━━━━━━</text>
<text text-anchor="middle" x="3495.5" y="-221.8" font-family="Arial" font-size="14.00">• Select operators</text>
<text text-anchor="middle" x="3495.5" y="-206.8" font-family="Arial" font-size="14.00">• Fanout requests</text>
<text text-anchor="middle" x="3495.5" y="-191.8" font-family="Arial" font-size="14.00">• Add interval metadata</text>
<text text-anchor="middle" x="3495.5" y="-176.8" font-family="Arial" font-size="14.00">• Handle timeouts</text>
</g>
<!-- GatewayIndex&#45;&gt;Router -->
<g id="edge6" class="edge">
<title>GatewayIndex&#45;&gt;Router</title>
<path fill="none" stroke="black" d="M3471,-334.69C3471,-334.69 3471,-277.07 3471,-277.07"/>
<polygon fill="black" stroke="black" points="3474.5,-277.07 3471,-267.07 3467.5,-277.07 3474.5,-277.07"/>
<text text-anchor="middle" x="3506.5" y="-309" font-family="Arial" font-size="10.00">route request</text>
</g>
<!-- IntervalMgr -->
<g id="node23" class="node">
<title>IntervalMgr</title>
<polygon fill="none" stroke="black" points="3738,-267 3593,-267 3593,-263 3589,-263 3589,-259 3593,-259 3593,-177 3589,-177 3589,-173 3593,-173 3593,-169 3738,-169 3738,-267"/>
<polyline fill="none" stroke="black" points="3593,-263 3597,-263 3597,-259 3593,-259 "/>
<polyline fill="none" stroke="black" points="3593,-177 3597,-177 3597,-173 3593,-173 "/>
<text text-anchor="middle" x="3665.5" y="-251.8" font-family="Arial" font-size="14.00">interval.ts</text>
<text text-anchor="middle" x="3665.5" y="-236.8" font-family="Arial" font-size="14.00">━━━━━━━━━━━</text>
<text text-anchor="middle" x="3665.5" y="-221.8" font-family="Arial" font-size="14.00">• Track request count</text>
<text text-anchor="middle" x="3665.5" y="-206.8" font-family="Arial" font-size="14.00">• Advance intervals</text>
<text text-anchor="middle" x="3665.5" y="-191.8" font-family="Arial" font-size="14.00">• Sync from on&#45;chain</text>
<text text-anchor="middle" x="3665.5" y="-176.8" font-family="Arial" font-size="14.00">• Emit interval events</text>
</g>
<!-- GatewayIndex&#45;&gt;IntervalMgr -->
<g id="edge8" class="edge">
<title>GatewayIndex&#45;&gt;IntervalMgr</title>
<path fill="none" stroke="black" d="M3525.53,-372C3576.23,-372 3629,-372 3629,-372 3629,-372 3629,-277.15 3629,-277.15"/>
<polygon fill="black" stroke="black" points="3632.5,-277.15 3629,-267.15 3625.5,-277.15 3632.5,-277.15"/>
<text text-anchor="middle" x="3649" y="-309" font-family="Arial" font-size="10.00">track interval</text>
</g>
<!-- OnChainClient -->
<g id="node24" class="node">
<title>OnChainClient</title>
<polygon fill="none" stroke="black" points="3890.5,-267 3756.5,-267 3756.5,-263 3752.5,-263 3752.5,-259 3756.5,-259 3756.5,-177 3752.5,-177 3752.5,-173 3756.5,-173 3756.5,-169 3890.5,-169 3890.5,-267"/>
<polyline fill="none" stroke="black" points="3756.5,-263 3760.5,-263 3760.5,-259 3756.5,-259 "/>
<polyline fill="none" stroke="black" points="3756.5,-177 3760.5,-177 3760.5,-173 3756.5,-173 "/>
<text text-anchor="middle" x="3823.5" y="-251.8" font-family="Arial" font-size="14.00">onchain.ts</text>
<text text-anchor="middle" x="3823.5" y="-236.8" font-family="Arial" font-size="14.00">━━━━━━━━━━━</text>
<text text-anchor="middle" x="3823.5" y="-221.8" font-family="Arial" font-size="14.00">• Read NCN state</text>
<text text-anchor="middle" x="3823.5" y="-206.8" font-family="Arial" font-size="14.00">• Parse operators</text>
<text text-anchor="middle" x="3823.5" y="-191.8" font-family="Arial" font-size="14.00">• Derive PDAs</text>
<text text-anchor="middle" x="3823.5" y="-176.8" font-family="Arial" font-size="14.00">• StakeCache class</text>
</g>
<!-- GatewayIndex&#45;&gt;OnChainClient -->
<g id="edge9" class="edge">
<title>GatewayIndex&#45;&gt;OnChainClient</title>
<path fill="none" stroke="black" d="M3525.92,-410C3641.25,-410 3823.5,-410 3823.5,-410 3823.5,-410 3823.5,-277.44 3823.5,-277.44"/>
<polygon fill="black" stroke="black" points="3827,-277.44 3823.5,-267.44 3820,-277.44 3827,-277.44"/>
<text text-anchor="middle" x="3793.5" y="-309" font-family="Arial" font-size="10.00">sync state</text>
</g>
<!-- CrankSvc -->
<g id="node25" class="node">
<title>CrankSvc</title>
<polygon fill="none" stroke="black" points="3223,-259.5 3056,-259.5 3056,-255.5 3052,-255.5 3052,-251.5 3056,-251.5 3056,-184.5 3052,-184.5 3052,-180.5 3056,-180.5 3056,-176.5 3223,-176.5 3223,-259.5"/>
<polyline fill="none" stroke="black" points="3056,-255.5 3060,-255.5 3060,-251.5 3056,-251.5 "/>
<polyline fill="none" stroke="black" points="3056,-184.5 3060,-184.5 3060,-180.5 3056,-180.5 "/>
<text text-anchor="middle" x="3139.5" y="-244.3" font-family="Arial" font-size="14.00">crank.ts</text>
<text text-anchor="middle" x="3139.5" y="-229.3" font-family="Arial" font-size="14.00">━━━━━━━━━━━</text>
<text text-anchor="middle" x="3139.5" y="-214.3" font-family="Arial" font-size="14.00">• Monitor epoch changes</text>
<text text-anchor="middle" x="3139.5" y="-199.3" font-family="Arial" font-size="14.00">• Call finalize_epoch</text>
<text text-anchor="middle" x="3139.5" y="-184.3" font-family="Arial" font-size="14.00">• Permissionless crank</text>
</g>
<!-- GatewayIndex&#45;&gt;CrankSvc -->
<g id="edge10" class="edge">
<title>GatewayIndex&#45;&gt;CrankSvc</title>
<path fill="none" stroke="black" d="M3341.16,-337C3261.27,-337 3158.5,-337 3158.5,-337 3158.5,-337 3158.5,-269.62 3158.5,-269.62"/>
<polygon fill="black" stroke="black" points="3162,-269.62 3158.5,-259.62 3155,-269.62 3162,-269.62"/>
<text text-anchor="middle" x="3226.5" y="-309" font-family="Arial" font-size="10.00">epoch finalization</text>
</g>
<!-- FinalizationSvc -->
<g id="node26" class="node">
<title>FinalizationSvc</title>
<polygon fill="none" stroke="black" points="3398.5,-259.5 3240.5,-259.5 3240.5,-255.5 3236.5,-255.5 3236.5,-251.5 3240.5,-251.5 3240.5,-184.5 3236.5,-184.5 3236.5,-180.5 3240.5,-180.5 3240.5,-176.5 3398.5,-176.5 3398.5,-259.5"/>
<polyline fill="none" stroke="black" points="3240.5,-255.5 3244.5,-255.5 3244.5,-251.5 3240.5,-251.5 "/>
<polyline fill="none" stroke="black" points="3240.5,-184.5 3244.5,-184.5 3244.5,-180.5 3240.5,-180.5 "/>
<text text-anchor="middle" x="3319.5" y="-244.3" font-family="Arial" font-size="14.00">finalization.ts</text>
<text text-anchor="middle" x="3319.5" y="-229.3" font-family="Arial" font-size="14.00">━━━━━━━━━━━</text>
<text text-anchor="middle" x="3319.5" y="-214.3" font-family="Arial" font-size="14.00">• Check deadline slots</text>
<text text-anchor="middle" x="3319.5" y="-199.3" font-family="Arial" font-size="14.00">• Call finalize_interval</text>
<text text-anchor="middle" x="3319.5" y="-184.3" font-family="Arial" font-size="14.00">• Update on&#45;chain state</text>
</g>
<!-- GatewayIndex&#45;&gt;FinalizationSvc -->
<g id="edge11" class="edge">
<title>GatewayIndex&#45;&gt;FinalizationSvc</title>
<path fill="none" stroke="black" d="M3370,-334.69C3370,-334.69 3370,-269.53 3370,-269.53"/>
<polygon fill="black" stroke="black" points="3373.5,-269.53 3370,-259.53 3366.5,-269.53 3373.5,-269.53"/>
<text text-anchor="middle" x="3378.5" y="-309" font-family="Arial" font-size="10.00">interval finalization</text>
</g>
<!-- GatewayIndex&#45;&gt;SolanaChain -->
<g id="edge14" class="edge">
<title>GatewayIndex&#45;&gt;SolanaChain</title>
<path fill="none" stroke="green" d="M3341.35,-340C3205.79,-340 2968.5,-340 2968.5,-340 2968.5,-340 2968.5,-101.35 2968.5,-101.35"/>
<polygon fill="green" stroke="green" points="2972,-101.35 2968.5,-91.35 2965,-101.35 2972,-101.35"/>
<text text-anchor="middle" x="3010.5" y="-215.5" font-family="Arial" font-size="10.00">read state</text>
</g>
<!-- Aggregator -->
<g id="node22" class="node">
<title>Aggregator</title>
<polygon fill="none" stroke="black" points="3575,-122 3416,-122 3416,-118 3412,-118 3412,-114 3416,-114 3416,-32 3412,-32 3412,-28 3416,-28 3416,-24 3575,-24 3575,-122"/>
<polyline fill="none" stroke="black" points="3416,-118 3420,-118 3420,-114 3416,-114 "/>
<polyline fill="none" stroke="black" points="3416,-32 3420,-32 3420,-28 3416,-28 "/>
<text text-anchor="middle" x="3495.5" y="-106.8" font-family="Arial" font-size="14.00">aggregator.ts</text>
<text text-anchor="middle" x="3495.5" y="-91.8" font-family="Arial" font-size="14.00">━━━━━━━━━━━</text>
<text text-anchor="middle" x="3495.5" y="-76.8" font-family="Arial" font-size="14.00">• Collect responses</text>
<text text-anchor="middle" x="3495.5" y="-61.8" font-family="Arial" font-size="14.00">• Verify signatures</text>
<text text-anchor="middle" x="3495.5" y="-46.8" font-family="Arial" font-size="14.00">• Stake&#45;weighted voting</text>
<text text-anchor="middle" x="3495.5" y="-31.8" font-family="Arial" font-size="14.00">• ≥2/3 consensus check</text>
</g>
<!-- Router&#45;&gt;Aggregator -->
<g id="edge7" class="edge">
<title>Router&#45;&gt;Aggregator</title>
<path fill="none" stroke="black" d="M3495.5,-168.91C3495.5,-168.91 3495.5,-132.04 3495.5,-132.04"/>
<polygon fill="black" stroke="black" points="3499,-132.04 3495.5,-122.04 3492,-132.04 3499,-132.04"/>
<text text-anchor="middle" x="3518.5" y="-143" font-family="Arial" font-size="10.00">responses</text>
</g>
<!-- CrankSvc&#45;&gt;SolanaChain -->
<g id="edge15" class="edge">
<title>CrankSvc&#45;&gt;SolanaChain</title>
<path fill="none" stroke="orange" d="M3139.5,-176.3C3139.5,-135.35 3139.5,-79 3139.5,-79 3139.5,-79 3042.66,-79 3042.66,-79"/>
<polygon fill="orange" stroke="orange" points="3042.66,-75.5 3032.66,-79 3042.66,-82.5 3042.66,-75.5"/>
<text text-anchor="middle" x="3110" y="-143" font-family="Arial" font-size="10.00">finalize_epoch</text>
</g>
<!-- FinalizationSvc&#45;&gt;SolanaChain -->
<g id="edge16" class="edge">
<title>FinalizationSvc&#45;&gt;SolanaChain</title>
<path fill="none" stroke="orange" d="M3319.5,-176.34C3319.5,-131.64 3319.5,-67 3319.5,-67 3319.5,-67 3042.88,-67 3042.88,-67"/>
<polygon fill="orange" stroke="orange" points="3042.88,-63.5 3032.88,-67 3042.88,-70.5 3042.88,-63.5"/>
<text text-anchor="middle" x="3276.5" y="-143" font-family="Arial" font-size="10.00">finalize_interval</text>
</g>
<!-- Types -->
<g id="node27" class="node">
<title>Types</title>
<polygon fill="none" stroke="black" points="3281,-440.5 3094,-440.5 3094,-342.5 3287,-342.5 3287,-434.5 3281,-440.5"/>
<polyline fill="none" stroke="black" points="3281,-440.5 3281,-434.5 "/>
<polyline fill="none" stroke="black" points="3287,-434.5 3281,-434.5 "/>
<text text-anchor="middle" x="3190.5" y="-425.3" font-family="Arial" font-size="14.00">types.ts</text>
<text text-anchor="middle" x="3190.5" y="-410.3" font-family="Arial" font-size="14.00">━━━━━━━━━━━</text>
<text text-anchor="middle" x="3190.5" y="-395.3" font-family="Arial" font-size="14.00">• JsonRpcRequest/Response</text>
<text text-anchor="middle" x="3190.5" y="-380.3" font-family="Arial" font-size="14.00">• Operator, Subscription</text>
<text text-anchor="middle" x="3190.5" y="-365.3" font-family="Arial" font-size="14.00">• VerificationLevel</text>
<text text-anchor="middle" x="3190.5" y="-350.3" font-family="Arial" font-size="14.00">• MultiSignedResponse</text>
</g>
<!-- SDKClient -->
<g id="node28" class="node">
<title>SDKClient</title>
<polygon fill="none" stroke="black" points="3665,-644 3496,-644 3496,-640 3492,-640 3492,-636 3496,-636 3496,-569 3492,-569 3492,-565 3496,-565 3496,-561 3665,-561 3665,-644"/>
<polyline fill="none" stroke="black" points="3496,-640 3500,-640 3500,-636 3496,-636 "/>
<polyline fill="none" stroke="black" points="3496,-569 3500,-569 3500,-565 3496,-565 "/>
<text text-anchor="middle" x="3580.5" y="-628.8" font-family="Arial" font-size="14.00">client.ts</text>
<text text-anchor="middle" x="3580.5" y="-613.8" font-family="Arial" font-size="14.00">━━━━━━━━━━━</text>
<text text-anchor="middle" x="3580.5" y="-598.8" font-family="Arial" font-size="14.00">• RpcNcnClient class</text>
<text text-anchor="middle" x="3580.5" y="-583.8" font-family="Arial" font-size="14.00">• Make verified requests</text>
<text text-anchor="middle" x="3580.5" y="-568.8" font-family="Arial" font-size="14.00">• Configure gateway URL</text>
</g>
<!-- SDKVerify -->
<g id="node29" class="node">
<title>SDKVerify</title>
<polygon fill="none" stroke="black" points="3477.5,-644 3295.5,-644 3295.5,-640 3291.5,-640 3291.5,-636 3295.5,-636 3295.5,-569 3291.5,-569 3291.5,-565 3295.5,-565 3295.5,-561 3477.5,-561 3477.5,-644"/>
<polyline fill="none" stroke="black" points="3295.5,-640 3299.5,-640 3299.5,-636 3295.5,-636 "/>
<polyline fill="none" stroke="black" points="3295.5,-569 3299.5,-569 3299.5,-565 3295.5,-565 "/>
<text text-anchor="middle" x="3386.5" y="-628.8" font-family="Arial" font-size="14.00">verify.ts</text>
<text text-anchor="middle" x="3386.5" y="-613.8" font-family="Arial" font-size="14.00">━━━━━━━━━━━</text>
<text text-anchor="middle" x="3386.5" y="-598.8" font-family="Arial" font-size="14.00">• Verify ED25519 sigs</text>
<text text-anchor="middle" x="3386.5" y="-583.8" font-family="Arial" font-size="14.00">• Check consensus</text>
<text text-anchor="middle" x="3386.5" y="-568.8" font-family="Arial" font-size="14.00">• Validate operator pubkeys</text>
</g>
<!-- SDKTypes -->
<g id="node30" class="node">
<title>SDKTypes</title>
<polygon fill="none" stroke="black" points="3271,-644 3146,-644 3146,-561 3277,-561 3277,-638 3271,-644"/>
<polyline fill="none" stroke="black" points="3271,-644 3271,-638 "/>
<polyline fill="none" stroke="black" points="3277,-638 3271,-638 "/>
<text text-anchor="middle" x="3211.5" y="-628.8" font-family="Arial" font-size="14.00">types.ts</text>
<text text-anchor="middle" x="3211.5" y="-613.8" font-family="Arial" font-size="14.00">━━━━━━━━━━━</text>
<text text-anchor="middle" x="3211.5" y="-598.8" font-family="Arial" font-size="14.00">• VerificationLevel</text>
<text text-anchor="middle" x="3211.5" y="-583.8" font-family="Arial" font-size="14.00">• SignedResponse</text>
<text text-anchor="middle" x="3211.5" y="-568.8" font-family="Arial" font-size="14.00">• VerificationResult</text>
</g>
<!-- Legend -->
<g id="node33" class="node">
<title>Legend</title>
<polygon fill="none" stroke="black" points="4237,-122 4052,-122 4052,-24 4243,-24 4243,-116 4237,-122"/>
<polyline fill="none" stroke="black" points="4237,-122 4237,-116 "/>
<polyline fill="none" stroke="black" points="4243,-116 4237,-116 "/>
<text text-anchor="middle" x="4147.5" y="-106.8" font-family="Arial" font-size="14.00">Data Flow</text>
<text text-anchor="middle" x="4147.5" y="-91.8" font-family="Arial" font-size="14.00">━━━━━━━━━━━━━━━━━</text>
<text text-anchor="middle" x="4147.5" y="-76.8" font-family="Arial" font-size="14.00">→ Blue: RPC requests</text>
<text text-anchor="middle" x="4147.5" y="-61.8" font-family="Arial" font-size="14.00">→ Red: Attestations</text>
<text text-anchor="middle" x="4147.5" y="-46.8" font-family="Arial" font-size="14.00">→ Green: State reads</text>
<text text-anchor="middle" x="4147.5" y="-31.8" font-family="Arial" font-size="14.00">→ Orange: Crank operations</text>
</g>
</g>
</svg>
